<svg width="1200" height="900" viewBox="0 0 1200 900" fill="none" xmlns="http://www.w3.org/2000/svg">
  <rect width="1200" height="900" fill="#3F3F46"/>
  <rect x="0" y="590" width="1200" height="310" fill="#27272A"/>
  <path d="M90 626H1110" stroke="#FACC15" stroke-width="20" stroke-linecap="round" stroke-dasharray="18 30"/>
  <circle cx="180" cy="154" r="120" fill="#FDE68A"/>
  <path d="M238 420C318 314 422 261 550 261C678 261 800 320 916 438" stroke="#FAFAF9" stroke-opacity="0.24" stroke-width="26" stroke-linecap="round"/>
  <rect x="282" y="420" width="432" height="174" rx="34" fill="#FACC15"/>
  <rect x="360" y="452" width="182" height="92" rx="22" fill="#FAFAF9" fill-opacity="0.8"/>
  <path d="M726 470H872C910.66 470 942 501.34 942 540V548C942 586.66 910.66 618 872 618H754C715.34 618 684 586.66 684 548V512C684 489.909 701.909 472 724 472L726 470Z" fill="#E5E7EB"/>
  <circle cx="400" cy="630" r="58" fill="#111827"/>
  <circle cx="830" cy="630" r="58" fill="#111827"/>
  <circle cx="400" cy="630" r="26" fill="#FAFAF9"/>
  <circle cx="830" cy="630" r="26" fill="#FAFAF9"/>
  <rect x="772" y="350" width="120" height="78" rx="18" fill="#F9FAFB" fill-opacity="0.2"/>
</svg>
