<svg width="1200" height="900" viewBox="0 0 1200 900" fill="none" xmlns="http://www.w3.org/2000/svg">
  <rect width="1200" height="900" fill="#4B5563"/>
  <rect x="60" y="72" width="1080" height="756" rx="36" fill="#F9FAFB" fill-opacity="0.16"/>
  <circle cx="1014" cy="188" r="132" fill="#FACC15" fill-opacity="0.82"/>
  <circle cx="1000" cy="174" r="76" fill="#FEF3C7"/>
  <rect x="126" y="168" width="420" height="480" rx="32" fill="#FFFFFF" fill-opacity="0.22"/>
  <rect x="126" y="168" width="420" height="94" rx="24" fill="#FACC15" fill-opacity="0.9"/>
  <rect x="168" y="314" width="110" height="110" rx="18" fill="#FEF3C7"/>
  <rect x="296" y="314" width="110" height="110" rx="18" fill="#FEF3C7"/>
  <rect x="424" y="314" width="80" height="110" rx="18" fill="#FEF3C7"/>
  <rect x="168" y="448" width="110" height="110" rx="18" fill="#FEF3C7"/>
  <rect x="296" y="448" width="110" height="110" rx="18" fill="#FFFFFF" fill-opacity="0.78"/>
  <rect x="424" y="448" width="80" height="110" rx="18" fill="#FEF3C7"/>
  <path d="M632 588C716.667 482.667 795.333 430 868 430C940.667 430 1010 477.333 1076 572" stroke="#FDE68A" stroke-width="28" stroke-linecap="round"/>
  <rect x="786" y="336" width="164" height="126" rx="22" fill="#111827" fill-opacity="0.28"/>
  <rect x="822" y="274" width="92" height="74" rx="18" fill="#F9FAFB" fill-opacity="0.34"/>
</svg>
